<svg width="25" height="25" viewBox="0 0 25 25" fill="none" xmlns="http://www.w3.org/2000/svg">
<path fill-rule="evenodd" clip-rule="evenodd" d="M1.81438 0.814954C1.26259 1.02308 0.804034 1.50571 0.648493 2.042C0.586833 2.25455 0.571043 5.02844 0.58669 12.8663C0.606696 22.8824 0.614198 23.4178 0.737517 23.6657C0.903561 23.9992 1.29952 24.3951 1.63304 24.5612C1.88154 24.6848 2.39725 24.6909 12.5753 24.6909C22.9628 24.6909 23.2643 24.6871 23.5329 24.5538C23.8731 24.385 24.2383 24.0167 24.412 23.6677C24.5348 23.4208 24.5439 23.0678 24.5619 17.8498L24.5811 12.2947H23.7224H22.8637V17.5676C22.8637 21.5734 22.8432 22.861 22.778 22.9262C22.6534 23.0508 2.49713 23.0508 2.37253 22.9262C2.24792 22.8016 2.24792 2.6453 2.37253 2.5207C2.43769 2.45554 3.72525 2.43496 7.73111 2.43496H13.0039V1.57759V0.720215L7.52034 0.725645C3.50862 0.729646 1.97706 0.753581 1.81438 0.814954ZM18.2725 5.77571L13.4326 10.6156V8.95449V7.29341H12.5753H11.7179V10.4371V13.5808H14.8616H18.0053V12.7234V11.8661H16.3443H14.6834L19.5244 7.02462L24.3654 2.18318L23.7389 1.55958L23.1123 0.935915L18.2725 5.77571Z" fill="white"/>
</svg>
