<svg width="24" height="24" viewBox="0 0 24 24" fill="none" xmlns="http://www.w3.org/2000/svg">
<path fill-rule="evenodd" clip-rule="evenodd" d="M1.23332 0.0947394C0.681531 0.302867 0.22298 0.785496 0.0674378 1.32178C0.00577843 1.53434 -0.0100114 4.30823 0.00563569 12.1461C0.0256411 22.1622 0.0331431 22.6976 0.156462 22.9454C0.322506 23.279 0.71847 23.6749 1.05199 23.841C1.30048 23.9646 1.81619 23.9707 11.9942 23.9707C22.3817 23.9707 22.6832 23.9669 22.9519 23.8336C23.292 23.6648 23.6573 23.2965 23.831 22.9475C23.9538 22.7006 23.9628 22.3476 23.9809 17.1296L24 11.5745H23.1413H22.2827V16.8474C22.2827 20.8532 22.2621 22.1408 22.1969 22.206C22.0723 22.3306 1.91608 22.3306 1.79147 22.206C1.66687 22.0813 1.66687 1.92509 1.79147 1.80048C1.85663 1.73532 3.14419 1.71475 7.15005 1.71475H12.4229V0.857373V0L6.93928 0.00542977C2.92756 0.00943084 1.39601 0.0333658 1.23332 0.0947394ZM17.71 0.857373V1.71475H19.371H21.0319L16.1914 6.55569L11.3509 11.3966L11.9758 12.0216L12.6008 12.6465L17.4417 7.80602L22.2827 2.96551V4.62646V6.2874H23.1401H23.9974V3.1437V0H20.8537H17.71V0.857373Z" fill="white"/>
</svg>
