<svg width="29" height="29" viewBox="0 0 29 29" fill="none" xmlns="http://www.w3.org/2000/svg">
<path fill-rule="evenodd" clip-rule="evenodd" d="M13.9967 0.873084C13.0706 1.24676 13.0571 1.34957 13.0555 7.97491L13.0543 14.1199L11.2667 12.3164C10.2838 11.3245 9.29747 10.4672 9.07519 10.4114C7.971 10.1344 6.91663 10.9754 6.91663 12.1334C6.91663 12.8727 6.96013 12.9255 10.3815 16.3407C13.9013 19.8542 14.319 20.1586 15.287 19.9156C15.8879 19.7647 22.0536 13.6871 22.4473 12.8576C22.8164 12.0798 22.6527 11.3592 21.9778 10.7914C20.9555 9.9312 20.2638 10.2138 18.1445 12.3571L16.6533 13.8652L16.5656 7.79386L16.4779 1.72237L15.9049 1.2108C15.3197 0.687999 14.7186 0.581685 13.9967 0.873084ZM1.70758 13.1568C0.922328 13.4729 0.71584 14.0841 0.830751 15.7508C1.1625 20.5605 3.97825 24.8534 8.32485 27.1767C8.85818 27.4618 10.0029 27.9079 10.8687 28.1683C12.9839 28.8041 16.2607 28.8492 18.3814 28.272C20.4133 27.7188 22.7006 26.4452 24.239 25.0101C26.8309 22.5924 28.224 19.8456 28.6749 16.2632C28.86 14.7929 28.8502 14.5324 28.5895 13.9831C28.237 13.2403 27.5183 12.8934 26.6637 13.0538C25.7367 13.2276 25.4085 13.7857 25.2721 15.4192C25.0357 18.2558 23.972 20.4842 21.9389 22.4024C18.3626 25.7766 12.8818 26.1876 8.78537 23.3885C6.13067 21.5747 4.61491 18.9211 4.29807 15.5322C4.16211 14.0789 4.11035 13.9255 3.60141 13.4708C3.03738 12.9669 2.42932 12.8661 1.70758 13.1568Z" fill="#020000"/>
</svg>
