<svg width="24" height="25" viewBox="0 0 24 25" fill="none" xmlns="http://www.w3.org/2000/svg">
<path fill-rule="evenodd" clip-rule="evenodd" d="M14.1011 23.8417C16.5168 23.4032 18.4759 22.4066 20.31 20.683C23.9805 17.2333 25.0506 11.5438 22.8953 6.93758C21.0796 3.05753 17.3649 0.469824 12.9917 0.038841C11.7132 -0.0870506 11.2941 0.0817597 11.2941 0.722813C11.2941 1.24581 11.6379 1.47575 12.4199 1.47575C13.554 1.47575 15.3073 1.94694 16.7153 2.63001C17.9224 3.2158 18.3461 3.52676 19.4289 4.62108C21.5517 6.76711 22.4957 9.04371 22.4957 12.0169C22.4957 14.9889 21.5523 17.2646 19.4289 19.4149C18.3377 20.5197 17.9319 20.8168 16.7153 21.4011C15.3097 22.0762 13.5205 22.5581 12.4199 22.5581C11.6379 22.5581 11.2941 22.788 11.2941 23.311C11.2941 24.0881 12.004 24.2222 14.1011 23.8417ZM12.8274 15.6387C14.7792 13.9038 16.4162 12.3791 16.4656 12.2505C16.5148 12.122 16.5148 11.9118 16.4656 11.7834C16.3201 11.4042 9.30333 5.24045 9.01736 5.24045C8.66393 5.24045 8.28234 5.64478 8.28234 6.01899C8.28234 6.36399 8.40432 6.48506 11.501 9.21447L13.741 11.1887L7.05866 11.264C3.38341 11.3054 0.291689 11.3941 0.188235 11.4611C0.0846301 11.5281 -3.40195e-07 11.7782 -3.40195e-07 12.0169C-3.40195e-07 12.2556 0.0846301 12.5057 0.188235 12.5727C0.291689 12.6397 3.38341 12.7284 7.05866 12.7699L13.741 12.8451L11.501 14.8194C8.40432 17.5488 8.28234 17.6698 8.28234 18.0148C8.28234 18.389 8.66393 18.7934 9.01736 18.7934C9.16117 18.7934 10.8758 17.3738 12.8274 15.6387Z" fill="white"/>
</svg>
