<svg width="24" height="24" viewBox="0 0 24 24" fill="none" xmlns="http://www.w3.org/2000/svg">
<path d="M11.0469 5.18648C11.5383 4.767 11.5383 4.08688 11.0469 3.6674L7.48748 0.629226C7.41422 0.566699 7.33757 0.508824 7.25804 0.455621C6.40381 -0.115844 5.2166 -0.149736 4.32288 0.353941C4.18331 0.432591 4.0509 0.524356 3.92804 0.629226L0.368597 3.6674C-0.122866 4.08688 -0.122866 4.767 0.368597 5.18648C0.860047 5.60597 1.65686 5.60597 2.14831 5.18648L4.51257 3.16845V18.4449C4.51257 19.0382 5.07601 19.5191 5.77103 19.5191C6.46606 19.5191 7.02948 19.0382 7.02948 18.4449V3.27647L9.26719 5.18648C9.75864 5.60596 10.5555 5.60596 11.0469 5.18648Z" fill="white"/>
<path d="M12.953 18.8136C12.4616 19.233 12.4616 19.9131 12.953 20.3326L16.5124 23.3708C16.6354 23.4756 16.7678 23.5675 16.9073 23.6461C17.8843 24.1966 19.2118 24.1049 20.072 23.3708L23.6314 20.3326C24.1228 19.9131 24.1228 19.233 23.6314 18.8136C23.1399 18.394 22.3431 18.394 21.8517 18.8136L19.6139 20.7235V5.55505C19.6139 4.96181 19.0505 4.4809 18.3554 4.4809C17.6604 4.4809 17.097 4.96181 17.097 5.55505V20.8315L14.7327 18.8136C14.2413 18.394 13.4445 18.394 12.953 18.8136Z" fill="white"/>
</svg>
